<?xml version="1.0" standalone="no"?>
<!DOCTYPE svg PUBLIC "-//W3C//DTD SVG 20010904//EN"
 "http://www.w3.org/TR/2001/REC-SVG-20010904/DTD/svg10.dtd">
<svg version="1.0" xmlns="http://www.w3.org/2000/svg"
 width="750.000000pt" height="390.000000pt" viewBox="0 0 750.000000 390.000000"
 preserveAspectRatio="xMidYMid meet">
<metadata>
Created by potrace 1.16, written by Peter Selinger 2001-2019
</metadata>
<g transform="translate(0.000000,390.000000) scale(0.100000,-0.100000)"
fill="#000000" stroke="none">
<path d="M3468 3648 c-3 -30 -6 -33 -40 -36 -34 -3 -38 -6 -38 -32 0 -26 4
-29 38 -32 34 -3 37 -6 40 -36 4 -40 -30 -84 -97 -126 -87 -54 -153 -118 -178
-172 -12 -28 -32 -59 -43 -69 -23 -21 -41 -71 -39 -111 1 -16 -5 -45 -13 -64
-22 -51 -30 -121 -19 -170 l9 -42 -31 28 c-39 36 -132 123 -255 237 -51 48
-96 87 -100 87 -4 0 -25 -16 -47 -34 l-40 -34 30 -32 30 -32 -60 -53 c-54 -49
-59 -56 -47 -74 31 -51 2 -79 -47 -45 -23 16 -25 15 -90 -50 l-66 -67 90 -84
c50 -46 94 -84 98 -85 5 0 42 28 83 62 l75 61 -28 29 c-21 22 -24 31 -15 40 9
9 18 6 40 -15 15 -15 32 -27 37 -27 5 0 23 14 40 30 28 28 33 29 45 15 11 -13
9 -20 -15 -45 l-29 -30 28 -28 c24 -26 25 -30 11 -42 -13 -11 -20 -9 -45 15
l-30 29 -64 -60 c-35 -32 -66 -65 -69 -71 -8 -17 175 -195 187 -182 20 19 36
9 36 -25 0 -33 -1 -33 -52 -40 -96 -11 -135 -7 -184 19 -26 14 -52 25 -59 25
-7 0 -20 9 -31 21 -52 57 -157 76 -224 40 -86 -45 -102 -131 -42 -225 36 -56
39 -81 16 -108 -14 -14 -14 -20 -4 -33 10 -12 10 -25 1 -59 -6 -25 -11 -60
-11 -79 0 -30 4 -35 37 -45 20 -6 40 -9 45 -6 4 3 8 1 8 -5 0 -5 12 -8 28 -7
25 3 27 7 34 66 4 35 12 68 19 74 9 8 10 6 5 -7 -3 -10 -9 -44 -13 -74 -5 -45
-3 -55 8 -51 8 3 38 -3 68 -14 30 -10 56 -18 58 -18 1 0 3 22 3 50 0 27 7 68
16 90 13 33 14 43 3 56 -7 8 -13 37 -13 63 -1 35 -11 67 -39 120 -41 78 -44
110 -12 121 33 11 80 -7 166 -66 45 -31 105 -67 134 -80 l52 -24 13 -162 13
-162 -74 -68 c-57 -52 -81 -68 -104 -68 -38 0 -55 -16 -55 -51 0 -15 -7 -32
-15 -39 -19 -15 -18 -16 -33 37 -36 126 -183 181 -311 117 -74 -37 -106 -88
-105 -168 0 -41 7 -74 21 -100 l20 -40 -28 -39 c-80 -110 -48 -236 74 -293 90
-41 182 -30 255 31 30 25 34 26 50 12 27 -24 73 -39 124 -38 150 0 258 173
185 295 -24 39 -93 92 -134 102 -30 8 -30 24 0 24 33 0 58 21 60 52 1 17 16
37 41 57 22 17 40 30 41 29 1 -2 10 -86 20 -188 10 -109 23 -198 32 -217 35
-76 143 -141 304 -184 73 -20 108 -23 264 -23 153 0 193 3 269 22 159 40 262
105 308 196 16 31 24 79 35 215 8 97 16 177 18 179 2 2 22 -11 44 -28 28 -23
41 -41 43 -63 3 -27 9 -33 43 -43 l40 -11 -50 -25 c-98 -50 -140 -111 -133
-194 6 -65 41 -123 100 -161 36 -24 52 -28 114 -28 60 0 78 4 103 23 l31 23
33 -24 c85 -64 164 -74 254 -33 122 57 157 197 75 296 l-29 34 23 51 c69 148
-28 285 -203 285 -94 0 -172 -58 -195 -146 -10 -37 -14 -41 -30 -33 -11 6 -18
21 -18 37 0 36 -17 52 -55 52 -23 1 -47 17 -106 73 l-77 72 9 125 c14 187 13
186 58 203 21 9 84 45 139 81 55 37 113 69 130 72 32 7 72 -9 72 -29 0 -7 -18
-48 -40 -91 -30 -58 -40 -91 -40 -125 0 -26 -5 -52 -12 -59 -8 -8 -9 -21 0
-49 6 -21 14 -64 18 -95 4 -32 11 -58 15 -58 5 0 9 4 9 10 0 5 7 7 15 4 8 -4
15 -1 15 5 0 6 3 10 8 10 4 -1 9 0 12 1 3 1 13 3 23 5 43 8 44 11 35 76 -4 34
-6 64 -4 66 5 6 26 -91 26 -122 0 -21 4 -23 40 -21 22 1 42 5 46 8 3 4 12 4
20 1 8 -3 14 0 14 7 0 6 5 8 10 5 19 -12 22 24 8 93 -9 47 -11 74 -4 85 8 12
5 21 -9 37 -20 22 -20 22 24 102 49 92 51 126 7 183 -56 73 -167 83 -247 22
-50 -38 -51 -39 -112 -66 -38 -17 -67 -21 -147 -21 l-100 0 0 33 c0 17 3 42 6
55 l7 23 23 -22 c12 -11 27 -20 33 -18 20 7 181 173 178 183 -2 5 -33 37 -70
70 l-67 59 -29 -27 c-25 -24 -29 -25 -41 -11 -11 13 -9 19 10 40 20 21 21 27
9 42 -8 10 -21 23 -29 29 -12 10 -12 14 -1 28 13 15 17 14 46 -14 17 -16 35
-30 40 -30 5 0 22 12 37 27 22 21 31 24 40 15 9 -9 6 -17 -11 -36 -13 -14 -22
-29 -20 -34 5 -11 135 -122 144 -122 13 0 185 164 185 176 0 7 -29 37 -64 68
l-63 56 -31 -16 c-48 -23 -68 0 -39 47 11 19 7 26 -47 75 l-60 54 29 30 29 30
-34 35 c-19 19 -40 35 -48 35 -7 0 -99 -81 -205 -179 -105 -99 -193 -178 -195
-176 -3 2 1 18 7 36 19 54 13 121 -14 175 -14 27 -25 59 -25 72 0 31 -34 96
-63 119 -12 10 -35 44 -51 76 -29 61 -92 119 -170 159 -64 33 -98 74 -94 117
3 34 5 36 41 39 33 3 37 6 37 32 0 26 -4 29 -37 32 -35 3 -38 6 -41 36 -3 29
-6 32 -37 32 -31 0 -34 -3 -37 -32z m188 -296 c86 -56 97 -72 89 -121 -4 -23
-10 -41 -14 -41 -4 0 -14 21 -22 48 -18 59 -38 61 -59 5 -22 -60 -26 -60 -44
-5 -26 79 -53 77 -75 -5 -7 -24 -15 -43 -20 -43 -4 0 -14 21 -22 48 -11 34
-21 48 -36 50 -17 3 -24 -6 -39 -50 l-17 -53 -24 53 c-30 69 -58 72 -75 7 -15
-55 -25 -57 -34 -9 -8 41 -7 42 100 114 57 39 60 40 146 40 84 0 89 -1 146
-38z m-606 -593 c190 -176 365 -340 390 -365 l45 -44 -47 0 -46 0 -371 342
-370 343 21 22 c12 13 24 23 28 23 3 0 161 -144 350 -321z m1328 298 l22 -23
-27 -24 c-16 -13 -182 -167 -371 -342 -343 -318 -343 -318 -388 -318 -24 0
-44 2 -44 5 0 6 773 725 780 725 4 0 16 -10 28 -23z m-1097 -170 c13 -61 34
-83 69 -72 12 4 24 22 30 48 25 94 34 117 43 114 6 -2 21 -34 34 -72 13 -39
32 -79 43 -90 19 -18 22 -19 48 -5 19 11 33 34 50 80 12 36 25 72 28 80 7 21
19 0 44 -84 17 -55 25 -67 47 -72 20 -5 31 -2 45 16 10 12 18 28 18 34 0 29
32 116 40 111 5 -3 12 -22 16 -43 14 -87 24 -112 44 -112 11 0 20 1 20 3 0 1
9 27 19 57 l19 55 7 -37 c7 -37 0 -89 -17 -120 -8 -17 -38 -18 -408 -18 -458
0 -424 -8 -418 98 3 58 5 58 30 -10 7 -20 17 -28 35 -28 13 0 25 6 27 13 3 6
14 46 26 87 21 72 23 74 35 50 7 -14 18 -51 26 -83z m318 91 c0 -7 -10 -42
-22 -78 -19 -56 -25 -65 -47 -65 -21 0 -27 9 -50 78 l-27 77 74 0 c52 0 73 -4
72 -12z m-738 -169 c90 -83 180 -166 199 -185 l35 -34 -50 -44 c-48 -42 -51
-43 -78 -29 -38 19 -68 13 -86 -18 -12 -22 -12 -29 2 -57 l15 -32 -48 -40
c-26 -22 -52 -40 -57 -40 -5 0 -41 33 -81 73 l-72 73 53 52 53 52 24 -25 c30
-31 37 -31 72 2 l28 27 -27 28 -27 28 27 28 c33 35 33 42 2 72 l-25 24 -35
-34 -35 -34 -22 21 c-39 35 -48 36 -74 12 -29 -27 -30 -45 -4 -59 11 -6 20
-15 20 -20 0 -4 -25 -29 -54 -55 -38 -32 -59 -44 -69 -38 -8 4 -45 37 -82 71
l-68 64 50 50 c44 44 53 49 71 39 29 -16 67 -14 83 5 10 12 10 22 0 49 -11 33
-11 34 36 79 26 25 51 46 54 46 3 0 79 -68 170 -151z m1553 106 c47 -42 49
-45 37 -73 -24 -57 23 -92 81 -61 18 10 27 5 70 -38 l50 -50 -61 -58 c-99 -94
-91 -92 -155 -38 -31 26 -56 51 -56 55 0 4 9 13 20 20 25 16 25 26 -2 55 -27
29 -36 29 -68 -2 -25 -24 -27 -24 -46 -8 -52 47 -53 48 -79 23 -31 -30 -31
-37 2 -72 l27 -28 -27 -28 -27 -28 28 -27 c34 -33 41 -33 71 -1 l24 25 54 -53
53 -52 -72 -73 c-40 -40 -77 -73 -83 -73 -5 1 -30 18 -54 39 l-43 38 13 37
c23 63 -14 98 -80 76 -40 -13 -41 -13 -83 25 -24 22 -44 42 -46 45 -3 7 387
370 397 370 3 -1 28 -21 55 -45z m-1079 -192 c12 -31 19 -193 8 -193 -8 0
-123 101 -223 196 -12 12 1 14 97 14 96 0 112 -2 118 -17z m95 -26 c34 -76 45
-200 24 -266 -3 -10 -16 -3 -44 24 -40 39 -40 39 -37 109 1 39 -2 95 -6 124
-9 52 -9 52 18 52 21 0 30 -8 45 -43z m150 40 c0 -2 -9 -30 -21 -63 -22 -65
-28 -203 -10 -261 7 -26 6 -35 -8 -47 -16 -15 -19 -14 -37 5 -16 18 -19 37
-19 143 0 104 -4 128 -23 170 -12 27 -22 50 -22 52 0 2 32 4 70 4 39 0 70 -2
70 -3z m90 -17 c-2 -8 -5 -67 -6 -130 l-2 -115 -38 -32 c-20 -18 -41 -33 -45
-33 -13 0 -22 89 -16 160 3 38 16 91 28 120 20 47 24 51 53 48 22 -2 30 -7 26
-18z m260 14 c0 -5 -138 -137 -202 -193 -47 -41 -53 -31 -45 77 11 131 1 122
133 122 63 0 114 -2 114 -6z m-735 -235 c41 -40 83 -77 92 -84 15 -11 15 -17
5 -39 l-12 -26 -200 0 c-114 0 -200 4 -200 9 0 5 12 18 27 29 25 18 26 20 10
43 -10 13 -17 34 -17 46 0 18 6 23 27 23 14 0 34 -7 44 -16 17 -15 21 -14 56
14 21 16 47 39 57 51 11 12 23 21 28 21 4 0 42 -32 83 -71z m804 22 l56 -48
34 18 c18 10 39 15 47 12 18 -7 18 -44 0 -69 -13 -17 -12 -22 17 -51 l31 -33
-217 0 c-279 0 -277 -1 -136 128 55 51 102 92 106 92 4 0 32 -22 62 -49z
m-1572 -192 c15 -6 38 -19 49 -30 l22 -20 -24 -24 c-13 -13 -24 -30 -24 -38 0
-7 18 -48 40 -90 23 -44 40 -89 40 -109 l0 -33 -87 3 c-101 4 -128 17 -137 64
-4 18 -22 58 -41 88 -41 64 -43 85 -12 131 39 59 110 82 174 58z m1743 -17 c0
-10 -18 -249 -40 -531 -44 -566 -44 -568 -115 -630 -198 -174 -730 -185 -972
-20 -85 59 -82 41 -135 624 -26 286 -47 532 -48 548 l0 27 655 0 c628 0 655
-1 655 -18z m591 -21 c51 -51 52 -88 4 -168 -19 -32 -35 -70 -35 -84 0 -38
-54 -58 -150 -56 -94 3 -96 10 -40 125 45 94 49 121 20 147 -23 21 -19 30 24
56 20 12 49 19 85 19 49 0 57 -3 92 -39z m-2251 -635 c39 -25 80 -95 80 -134
0 -30 15 -35 50 -17 21 11 30 23 30 39 0 62 23 70 82 29 49 -34 49 -64 -1 -74
-64 -13 -67 -55 -5 -76 23 -8 60 -30 82 -49 71 -61 80 -143 23 -221 -61 -84
-179 -107 -255 -50 -43 33 -45 33 -76 0 -55 -58 -146 -78 -218 -47 -74 31
-122 95 -122 164 0 48 11 73 52 117 l31 32 -21 33 c-53 86 -48 169 13 228 67
65 179 76 255 26z m2237 4 c88 -49 112 -140 61 -238 -17 -32 -23 -54 -16 -58
5 -4 23 -27 39 -52 63 -100 18 -215 -100 -257 -24 -8 -58 -15 -75 -15 -41 1
-105 31 -135 64 -30 32 -34 32 -75 1 -52 -39 -114 -43 -179 -11 -90 43 -134
130 -107 210 14 43 77 99 137 122 63 24 57 68 -12 76 -47 5 -45 38 4 72 50 35
75 31 79 -11 3 -33 26 -59 56 -65 15 -2 22 6 31 44 27 100 98 153 197 145 32
-3 74 -14 95 -27z"/>
<path d="M2328 2235 c-9 -20 -18 -25 -37 -23 -42 5 -39 -28 7 -68 30 -25 43
-47 53 -83 10 -41 17 -50 38 -54 14 -3 30 -3 35 0 8 5 4 44 -9 89 -5 16 -2 23
13 26 29 8 18 56 -15 64 -20 6 -23 11 -18 32 11 45 -47 60 -67 17z"/>
<path d="M3399 2058 l-36 -9 33 -67 c51 -101 68 -179 68 -312 0 -132 -17 -209
-69 -312 l-34 -68 37 -9 c20 -5 51 -11 68 -14 l31 -6 6 301 c4 166 7 348 7
405 l0 103 -37 -1 c-21 -1 -54 -5 -74 -11z"/>
<path d="M3553 1913 c4 -87 7 -268 7 -402 l0 -244 54 7 c90 10 89 9 51 84 -51
102 -68 180 -68 312 -1 133 16 211 67 312 l33 66 -43 11 c-23 6 -57 11 -75 11
l-32 0 6 -157z"/>
<path d="M3720 1959 c-59 -91 -82 -160 -87 -264 -8 -139 27 -249 105 -333 17
-18 34 -32 39 -32 4 1 22 12 38 26 29 24 30 25 10 40 -11 8 -37 31 -58 51
-137 132 -119 382 34 489 43 29 41 37 -10 67 l-31 18 -40 -62z"/>
<path d="M3247 1987 l-28 -22 50 -37 c37 -28 58 -54 83 -105 29 -60 33 -77 33
-148 0 -71 -4 -88 -33 -148 -25 -50 -46 -77 -83 -105 -27 -20 -49 -40 -49 -43
0 -4 14 -18 31 -30 39 -27 50 -22 102 52 58 82 81 170 75 288 -5 106 -29 179
-88 270 -36 57 -52 61 -93 28z"/>
<path d="M3136 1873 c-20 -31 -56 -113 -56 -129 0 -2 18 6 40 17 58 31 124 22
162 -20 77 -86 -14 -211 -129 -179 -21 5 -44 15 -51 20 -7 6 -15 8 -18 5 -8
-8 45 -123 66 -142 17 -15 21 -15 58 4 47 24 88 70 115 130 29 67 21 166 -19
223 -27 39 -113 108 -135 108 -5 0 -20 -17 -33 -37z"/>
<path d="M3834 1878 c-73 -50 -107 -105 -112 -182 -2 -35 1 -80 7 -99 18 -55
66 -113 116 -143 43 -25 47 -25 64 -10 21 19 76 135 68 143 -3 2 -19 -3 -36
-11 -85 -45 -178 -2 -188 87 -5 43 -3 49 30 82 30 30 41 35 84 35 30 0 60 -7
81 -20 l32 -20 -6 28 c-12 50 -66 142 -84 142 -4 0 -29 -15 -56 -32z"/>
<path d="M4658 2253 c-13 -3 -18 -14 -18 -39 0 -27 -4 -34 -19 -34 -20 0 -31
-18 -31 -51 0 -12 7 -19 20 -19 17 0 18 -3 10 -26 -6 -14 -10 -39 -10 -55 0
-23 4 -29 23 -29 33 0 43 11 51 55 6 27 20 51 46 76 51 48 55 73 15 77 -20 2
-34 11 -40 24 -11 24 -21 28 -47 21z"/>
<path d="M2343 1625 c-59 -26 -89 -106 -59 -163 24 -46 63 -72 108 -72 83 0
134 56 125 137 -5 50 -28 80 -74 99 -40 17 -59 17 -100 -1z m108 -25 c30 -17
52 -68 45 -106 -8 -39 -57 -84 -92 -84 -33 0 -81 25 -94 49 -18 35 -12 87 16
120 21 25 33 31 66 31 21 0 48 -5 59 -10z"/>
<path d="M2630 1358 c-49 -33 -69 -91 -49 -144 28 -74 120 -107 183 -65 39 26
55 57 56 109 0 95 -111 154 -190 100z m128 -25 c70 -44 41 -163 -43 -179 -37
-7 -89 16 -105 45 -19 37 -12 96 16 124 38 39 82 42 132 10z"/>
<path d="M2309 1325 c-39 -21 -59 -59 -59 -109 0 -110 130 -164 208 -86 55 54
48 140 -13 188 -32 26 -96 29 -136 7z m111 -20 c91 -47 53 -185 -50 -185 -33
0 -48 6 -71 29 -42 42 -40 92 5 137 38 38 70 43 116 19z"/>
<path d="M4579 1617 c-41 -28 -59 -60 -59 -111 0 -31 7 -45 39 -77 33 -34 45
-39 83 -39 99 0 159 104 108 187 -38 63 -112 80 -171 40z m128 -24 c58 -38 46
-138 -20 -169 -88 -42 -174 49 -130 136 28 55 93 69 150 33z"/>
<path d="M4294 1370 c-11 -4 -33 -23 -48 -41 -25 -29 -28 -39 -23 -82 3 -37
11 -56 34 -79 104 -103 272 32 190 153 -36 53 -95 73 -153 49z m113 -35 c11
-8 26 -30 33 -49 37 -112 -119 -183 -181 -82 -60 94 52 193 148 131z"/>
<path d="M4591 1314 c-38 -31 -56 -90 -40 -131 25 -66 92 -103 153 -83 94 31
119 147 46 213 -42 38 -115 38 -159 1z m128 -8 c90 -47 53 -186 -49 -186 -33
0 -48 6 -71 29 -82 82 16 210 120 157z"/>
<path d="M2350 726 c0 -158 1 -166 20 -166 16 0 19 8 22 63 l3 62 70 5 c104 8
135 32 135 104 0 22 -9 45 -24 63 -23 27 -29 28 -125 31 l-101 4 0 -166z m182
112 c30 -24 31 -56 4 -83 -23 -23 -33 -26 -84 -23 l-57 3 -3 44 c-2 24 -1 50
2 57 7 18 116 19 138 2z"/>
<path d="M2660 756 c0 -119 2 -136 20 -159 41 -52 148 -61 196 -16 34 32 44
78 44 202 l0 107 -25 0 -25 0 0 -124 c0 -151 -10 -171 -84 -171 -74 0 -80 13
-84 165 -3 120 -5 130 -23 130 -18 0 -19 -9 -19 -134z"/>
<path d="M3065 880 c-11 -4 -33 -22 -50 -39 -26 -28 -30 -40 -33 -104 -5 -123
43 -182 148 -182 48 0 63 4 85 25 31 29 57 75 48 84 -14 14 -40 4 -51 -18 -26
-57 -107 -72 -153 -30 -47 42 -49 160 -4 208 31 34 104 37 135 6 11 -11 20
-24 20 -30 0 -5 11 -10 25 -10 14 0 25 5 25 10 0 20 -33 61 -61 76 -30 15
-102 18 -134 4z"/>
<path d="M3450 726 c0 -158 1 -166 20 -166 18 0 20 8 22 128 l3 127 43 -127
c38 -111 46 -128 65 -128 19 0 28 17 67 128 l45 127 3 -127 c2 -120 4 -128 22
-128 19 0 20 8 20 165 l0 165 -29 0 c-28 0 -31 -4 -66 -107 -64 -191 -55 -189
-107 -33 -44 133 -45 135 -76 138 l-32 3 0 -165z"/>
<path d="M3930 680 c0 -113 1 -120 20 -120 18 0 20 7 20 79 0 94 5 109 38 122
18 7 31 5 48 -6 22 -14 24 -22 24 -105 0 -83 1 -90 20 -90 19 0 20 7 20 100 0
87 -3 103 -20 120 -22 22 -78 27 -110 10 -13 -7 -21 -7 -25 0 -3 5 -13 10 -21
10 -11 0 -14 -22 -14 -120z"/>
<path d="M4206 779 c-30 -23 -34 -44 -9 -53 15 -6 32 8 33 26 0 13 59 19 79 8
23 -12 28 -48 9 -55 -7 -2 -34 -6 -59 -10 -84 -11 -119 -80 -63 -124 32 -25
68 -27 109 -5 19 10 31 11 33 5 2 -6 13 -11 25 -11 21 0 22 2 17 101 -5 91 -7
103 -29 120 -33 27 -110 26 -145 -2z"/>
<path d="M4452 777 c-43 -46 -23 -90 51 -112 28 -8 59 -20 67 -25 25 -16 -1
-45 -43 -48 -29 -3 -39 2 -52 21 -11 17 -22 23 -35 20 -25 -7 -25 -14 0 -46
52 -66 180 -36 180 43 0 34 -20 50 -97 75 -55 17 -67 37 -34 55 29 15 49 12
71 -10 11 -11 27 -20 35 -20 24 0 18 27 -11 49 -38 30 -103 28 -132 -2z"/>
</g>
</svg>
